<svg width="846" height="30" viewBox="0 0 846 30" fill="none" xmlns="http://www.w3.org/2000/svg">
<rect width="846" height="30" fill="white"/>
<path d="M49.8047 12.1133H50.9727C50.9492 12.4961 50.8438 12.8359 50.6562 13.1328C50.4714 13.4297 50.2122 13.6615 49.8789 13.8281C49.5482 13.9948 49.1497 14.0781 48.6836 14.0781C48.319 14.0781 47.9922 14.0156 47.7031 13.8906C47.4141 13.763 47.1667 13.5807 46.9609 13.3438C46.7578 13.1068 46.6029 12.8203 46.4961 12.4844C46.3893 12.1484 46.3359 11.7721 46.3359 11.3555V10.9609C46.3359 10.5443 46.3906 10.168 46.5 9.83203C46.612 9.49349 46.7708 9.20573 46.9766 8.96875C47.1849 8.73177 47.4336 8.54948 47.7227 8.42188C48.0117 8.29427 48.3346 8.23047 48.6914 8.23047C49.1654 8.23047 49.5651 8.31641 49.8906 8.48828C50.2188 8.66016 50.4727 8.89714 50.6523 9.19922C50.8346 9.5013 50.944 9.84505 50.9805 10.2305H49.8086C49.7956 10.0013 49.75 9.80729 49.6719 9.64844C49.5938 9.48698 49.4753 9.36589 49.3164 9.28516C49.1602 9.20182 48.9518 9.16016 48.6914 9.16016C48.4961 9.16016 48.3255 9.19661 48.1797 9.26953C48.0339 9.34245 47.9115 9.45312 47.8125 9.60156C47.7135 9.75 47.6393 9.9375 47.5898 10.1641C47.543 10.388 47.5195 10.651 47.5195 10.9531V11.3555C47.5195 11.6497 47.5417 11.9089 47.5859 12.1328C47.6302 12.3542 47.6979 12.5417 47.7891 12.6953C47.8828 12.8464 48.0026 12.9609 48.1484 13.0391C48.2969 13.1146 48.4753 13.1523 48.6836 13.1523C48.9284 13.1523 49.1302 13.1133 49.2891 13.0352C49.4479 12.957 49.569 12.8411 49.6523 12.6875C49.7383 12.5339 49.7891 12.3424 49.8047 12.1133ZM55.3984 13.0859V14H52.5352V13.0859H55.3984ZM52.9141 8.3125V14H51.7422V8.3125H52.9141ZM57.3164 8.3125V14H56.1484V8.3125H57.3164ZM48.7227 19.9727H47.2734V19.0586H48.7227C48.9466 19.0586 49.1289 19.0221 49.2695 18.9492C49.4102 18.8737 49.513 18.7695 49.5781 18.6367C49.6432 18.5039 49.6758 18.3542 49.6758 18.1875C49.6758 18.0182 49.6432 17.8607 49.5781 17.7148C49.513 17.569 49.4102 17.4518 49.2695 17.3633C49.1289 17.2747 48.9466 17.2305 48.7227 17.2305H47.6797V22H46.5078V16.3125H48.7227C49.168 16.3125 49.5495 16.3932 49.8672 16.5547C50.1875 16.7135 50.4323 16.9336 50.6016 17.2148C50.7708 17.4961 50.8555 17.8177 50.8555 18.1797C50.8555 18.5469 50.7708 18.8646 50.6016 19.1328C50.4323 19.401 50.1875 19.6081 49.8672 19.7539C49.5495 19.8997 49.168 19.9727 48.7227 19.9727ZM51.3594 19.9297V19.8477C51.3594 19.5378 51.4036 19.2526 51.4922 18.9922C51.5807 18.7292 51.7096 18.5013 51.8789 18.3086C52.0482 18.1159 52.2565 17.9661 52.5039 17.8594C52.7513 17.75 53.0352 17.6953 53.3555 17.6953C53.6758 17.6953 53.9609 17.75 54.2109 17.8594C54.4609 17.9661 54.6706 18.1159 54.8398 18.3086C55.0117 18.5013 55.1419 18.7292 55.2305 18.9922C55.319 19.2526 55.3633 19.5378 55.3633 19.8477V19.9297C55.3633 20.237 55.319 20.5221 55.2305 20.7852C55.1419 21.0456 55.0117 21.2734 54.8398 21.4688C54.6706 21.6615 54.4622 21.8112 54.2148 21.918C53.9674 22.0247 53.6836 22.0781 53.3633 22.0781C53.043 22.0781 52.7578 22.0247 52.5078 21.918C52.2604 21.8112 52.0508 21.6615 51.8789 21.4688C51.7096 21.2734 51.5807 21.0456 51.4922 20.7852C51.4036 20.5221 51.3594 20.237 51.3594 19.9297ZM52.4844 19.8477V19.9297C52.4844 20.1068 52.5 20.2721 52.5312 20.4258C52.5625 20.5794 52.612 20.7148 52.6797 20.832C52.75 20.9466 52.8411 21.0365 52.9531 21.1016C53.0651 21.1667 53.2018 21.1992 53.3633 21.1992C53.5195 21.1992 53.6536 21.1667 53.7656 21.1016C53.8776 21.0365 53.9674 20.9466 54.0352 20.832C54.1029 20.7148 54.1523 20.5794 54.1836 20.4258C54.2174 20.2721 54.2344 20.1068 54.2344 19.9297V19.8477C54.2344 19.6758 54.2174 19.5143 54.1836 19.3633C54.1523 19.2096 54.1016 19.0742 54.0312 18.957C53.9635 18.8372 53.8737 18.7435 53.7617 18.6758C53.6497 18.6081 53.5143 18.5742 53.3555 18.5742C53.1966 18.5742 53.0612 18.6081 52.9492 18.6758C52.8398 18.7435 52.75 18.8372 52.6797 18.957C52.612 19.0742 52.5625 19.2096 52.5312 19.3633C52.5 19.5143 52.4844 19.6758 52.4844 19.8477ZM57.1797 18.6953V22H56.0547V17.7734H57.1133L57.1797 18.6953ZM58.4531 17.7461L58.4336 18.7891C58.3789 18.7812 58.3125 18.7747 58.2344 18.7695C58.1589 18.7617 58.0898 18.7578 58.0273 18.7578C57.8685 18.7578 57.7305 18.7786 57.6133 18.8203C57.4987 18.8594 57.4023 18.918 57.3242 18.9961C57.2487 19.0742 57.1914 19.1693 57.1523 19.2812C57.1159 19.3932 57.0951 19.5208 57.0898 19.6641L56.8633 19.5938C56.8633 19.3203 56.8906 19.069 56.9453 18.8398C57 18.6081 57.0794 18.4062 57.1836 18.2344C57.2904 18.0625 57.4206 17.9297 57.5742 17.8359C57.7279 17.7422 57.9036 17.6953 58.1016 17.6953C58.1641 17.6953 58.2279 17.7005 58.293 17.7109C58.3581 17.7188 58.4115 17.7305 58.4531 17.7461ZM61.25 17.7734V18.5703H58.7891V17.7734H61.25ZM59.3984 16.7305H60.5234V20.7266C60.5234 20.849 60.5391 20.9427 60.5703 21.0078C60.6042 21.0729 60.6536 21.1185 60.7188 21.1445C60.7839 21.168 60.8659 21.1797 60.9648 21.1797C61.0352 21.1797 61.0977 21.1771 61.1523 21.1719C61.2096 21.1641 61.2578 21.1562 61.2969 21.1484L61.3008 21.9766C61.2044 22.0078 61.1003 22.0326 60.9883 22.0508C60.8763 22.069 60.7526 22.0781 60.6172 22.0781C60.3698 22.0781 60.1536 22.0378 59.9688 21.957C59.7865 21.8737 59.6458 21.7409 59.5469 21.5586C59.4479 21.3763 59.3984 21.1367 59.3984 20.8398V16.7305ZM63.3242 22H62.1914V17.3984C62.1914 17.0781 62.2539 16.8086 62.3789 16.5898C62.5065 16.3685 62.6849 16.2018 62.9141 16.0898C63.1458 15.9753 63.4206 15.918 63.7383 15.918C63.8424 15.918 63.9427 15.9258 64.0391 15.9414C64.1354 15.9544 64.2292 15.9714 64.3203 15.9922L64.3086 16.8398C64.2591 16.8268 64.207 16.8177 64.1523 16.8125C64.0977 16.8073 64.0339 16.8047 63.9609 16.8047C63.8255 16.8047 63.7096 16.8281 63.6133 16.875C63.5195 16.9193 63.4479 16.9857 63.3984 17.0742C63.349 17.1628 63.3242 17.2708 63.3242 17.3984V22ZM64.168 17.7734V18.5703H61.5625V17.7734H64.168ZM64.5781 19.9297V19.8477C64.5781 19.5378 64.6224 19.2526 64.7109 18.9922C64.7995 18.7292 64.9284 18.5013 65.0977 18.3086C65.2669 18.1159 65.4753 17.9661 65.7227 17.8594C65.9701 17.75 66.2539 17.6953 66.5742 17.6953C66.8945 17.6953 67.1797 17.75 67.4297 17.8594C67.6797 17.9661 67.8893 18.1159 68.0586 18.3086C68.2305 18.5013 68.3607 18.7292 68.4492 18.9922C68.5378 19.2526 68.582 19.5378 68.582 19.8477V19.9297C68.582 20.237 68.5378 20.5221 68.4492 20.7852C68.3607 21.0456 68.2305 21.2734 68.0586 21.4688C67.8893 21.6615 67.681 21.8112 67.4336 21.918C67.1862 22.0247 66.9023 22.0781 66.582 22.0781C66.2617 22.0781 65.9766 22.0247 65.7266 21.918C65.4792 21.8112 65.2695 21.6615 65.0977 21.4688C64.9284 21.2734 64.7995 21.0456 64.7109 20.7852C64.6224 20.5221 64.5781 20.237 64.5781 19.9297ZM65.7031 19.8477V19.9297C65.7031 20.1068 65.7188 20.2721 65.75 20.4258C65.7812 20.5794 65.8307 20.7148 65.8984 20.832C65.9688 20.9466 66.0599 21.0365 66.1719 21.1016C66.2839 21.1667 66.4206 21.1992 66.582 21.1992C66.7383 21.1992 66.8724 21.1667 66.9844 21.1016C67.0964 21.0365 67.1862 20.9466 67.2539 20.832C67.3216 20.7148 67.3711 20.5794 67.4023 20.4258C67.4362 20.2721 67.4531 20.1068 67.4531 19.9297V19.8477C67.4531 19.6758 67.4362 19.5143 67.4023 19.3633C67.3711 19.2096 67.3203 19.0742 67.25 18.957C67.1823 18.8372 67.0924 18.7435 66.9805 18.6758C66.8685 18.6081 66.7331 18.5742 66.5742 18.5742C66.4154 18.5742 66.2799 18.6081 66.168 18.6758C66.0586 18.7435 65.9688 18.8372 65.8984 18.957C65.8307 19.0742 65.7812 19.2096 65.75 19.3633C65.7188 19.5143 65.7031 19.6758 65.7031 19.8477ZM70.4609 16V22H69.332V16H70.4609ZM72.5781 17.7734V22H71.4492V17.7734H72.5781ZM71.3789 16.6719C71.3789 16.5078 71.4362 16.3724 71.5508 16.2656C71.6654 16.1589 71.819 16.1055 72.0117 16.1055C72.2018 16.1055 72.3542 16.1589 72.4688 16.2656C72.5859 16.3724 72.6445 16.5078 72.6445 16.6719C72.6445 16.8359 72.5859 16.9714 72.4688 17.0781C72.3542 17.1849 72.2018 17.2383 72.0117 17.2383C71.819 17.2383 71.6654 17.1849 71.5508 17.0781C71.4362 16.9714 71.3789 16.8359 71.3789 16.6719ZM73.3281 19.9297V19.8477C73.3281 19.5378 73.3724 19.2526 73.4609 18.9922C73.5495 18.7292 73.6784 18.5013 73.8477 18.3086C74.0169 18.1159 74.2253 17.9661 74.4727 17.8594C74.7201 17.75 75.0039 17.6953 75.3242 17.6953C75.6445 17.6953 75.9297 17.75 76.1797 17.8594C76.4297 17.9661 76.6393 18.1159 76.8086 18.3086C76.9805 18.5013 77.1107 18.7292 77.1992 18.9922C77.2878 19.2526 77.332 19.5378 77.332 19.8477V19.9297C77.332 20.237 77.2878 20.5221 77.1992 20.7852C77.1107 21.0456 76.9805 21.2734 76.8086 21.4688C76.6393 21.6615 76.431 21.8112 76.1836 21.918C75.9362 22.0247 75.6523 22.0781 75.332 22.0781C75.0117 22.0781 74.7266 22.0247 74.4766 21.918C74.2292 21.8112 74.0195 21.6615 73.8477 21.4688C73.6784 21.2734 73.5495 21.0456 73.4609 20.7852C73.3724 20.5221 73.3281 20.237 73.3281 19.9297ZM74.4531 19.8477V19.9297C74.4531 20.1068 74.4688 20.2721 74.5 20.4258C74.5312 20.5794 74.5807 20.7148 74.6484 20.832C74.7188 20.9466 74.8099 21.0365 74.9219 21.1016C75.0339 21.1667 75.1706 21.1992 75.332 21.1992C75.4883 21.1992 75.6224 21.1667 75.7344 21.1016C75.8464 21.0365 75.9362 20.9466 76.0039 20.832C76.0716 20.7148 76.1211 20.5794 76.1523 20.4258C76.1862 20.2721 76.2031 20.1068 76.2031 19.9297V19.8477C76.2031 19.6758 76.1862 19.5143 76.1523 19.3633C76.1211 19.2096 76.0703 19.0742 76 18.957C75.9323 18.8372 75.8424 18.7435 75.7305 18.6758C75.6185 18.6081 75.4831 18.5742 75.3242 18.5742C75.1654 18.5742 75.0299 18.6081 74.918 18.6758C74.8086 18.7435 74.7188 18.8372 74.6484 18.957C74.5807 19.0742 74.5312 19.2096 74.5 19.3633C74.4688 19.5143 74.4531 19.6758 74.4531 19.8477Z" fill="black"/>
<rect x="21.5" y="5.5" width="20" height="20" rx="3.5" stroke="black" stroke-width="3"/>
<rect x="21.3143" y="5.35294" width="20.3714" height="5.41176" fill="black"/>
<path d="M27.7109 14.0508L24.5811 12.9326V11.6191L28.834 13.4062V14.3486L27.7109 14.0508ZM24.5811 14.9883L27.7158 13.8457L28.834 13.5771V14.5146L24.5811 16.3018V14.9883ZM36.0947 17V18.0693H31.6611V17H36.0947Z" fill="black"/>
</svg>
